# xmcd
#
# Track frame offsets:
#  150
#  10221
#  37715
#  55219
#  75686
#  123522
#  149159
#  166587
#  197987
#  219238
#  264092
#  278944
#
# Disc length: 3991 seconds
#
# Revision: 0
# Processed by: cddbd v1.5.1PL0 Copyright (c) Steve Scherf et al.
# Submitted via: Collectorz.com Music Collector 6.9
#
DISCID=a20f950c
DTITLE=jack ingram and todd snider - Live At The Creighton Theatre, Conroe, Texas - Disc 2
DYEAR=2001
DGENRE=
TTITLE0=Intro
TTITLE1=todd snider - Picture On My Wall
TTITLE2=jack ingram - She Does Her Best
TTITLE3=todd snider - Long Year
TTITLE4=jack ingram - What Makes You Say
TTITLE5=todd snider - Alright Guy
TTITLE6=jack ingram - Flutter
TTITLE7=todd snider - Double Wide Blues
TTITLE8=jack ingram - Airways Motel
TTITLE9=jack ingram - Barbie Doll
TTITLE10=todd snider - Live Forever
TTITLE11=todd snider - Pissin' In The Wind
EXTD=
EXTT0=
EXTT1=
EXTT2=
EXTT3=
EXTT4=
EXTT5=
EXTT6=
EXTT7=
EXTT8=
EXTT9=
EXTT10=
EXTT11=
PLAYORDER=
